<svg viewBox="0 0 420 22" xmlns="http://www.w3.org/2000/svg" fill="black" height="80">

<!-- K - angelehnt an kombinierte Elemente -->
<path d="M5 1.00714H9.244V21.0063H5V1.00714Z" fill="currentColor"/>
<path d="M9.244 1.00714L18.225 14.6682V21.0028L4.535 1.00714H9.244Z" fill="currentColor"/>
<path opacity="0.7" d="M8.613 6.96233V21.0028H4.535V1.00714L8.613 6.96233Z" fill="currentColor"/>
<path d="M18.434 13.4152L25.562 1.00714H30.037L22.646 13.4152H18.434Z" fill="currentColor"/>
<path opacity="0.7" d="M18.434 13.4152L11.107 1.00714H15.717L20.68 9.51008L18.434 13.4152Z" fill="currentColor"/>
<path opacity="0.5" d="M22.646 13.4153V21.0028H18.434V13.4153" fill="currentColor"/>

<!-- E - S-Struktur übernommen -->
<path d="M35.367 3.31479C35.367 6.09921 37.117 7.75595 40.621 8.62956L44.334 9.47533C47.65 10.2236 49.67 12.0822 49.67 15.1103C49.696 16.4295 49.259 17.7173 48.433 18.7579C48.433 15.7368 46.842 14.1044 43.005 13.1229L39.36 12.3085C36.44 11.6541 34.187 10.1262 34.187 6.83709C34.172 5.56693 34.587 4.32781 35.367 3.31479" fill="currentColor"/>
<path opacity="0.7" d="M46.152 14.3689C47.735 15.3643 48.43 16.7565 48.43 18.7544C47.119 20.4041 44.816 21.33 42.109 21.33C37.553 21.33 34.364 19.1268 33.656 15.2982H38.031C38.595 17.0559 40.086 17.8703 42.077 17.8703C44.508 17.8703 46.123 16.5964 46.155 14.3619" fill="currentColor"/>
<path opacity="0.7" d="M37.642 7.44267C36.918 7.02045 36.325 6.41375 35.925 5.68697C35.524 4.96019 35.332 4.14045 35.367 3.31476C36.632 1.67891 38.832 0.679993 41.514 0.679993C46.155 0.679993 48.841 3.08852 49.503 6.47856H45.294C44.83 5.14203 43.668 4.10136 41.549 4.10136C39.285 4.10136 37.741 5.39611 37.652 7.44267" fill="currentColor"/>

<!-- P - A-Struktur -->
<path d="M58.957 4.65474H52.424V1.00714H67.641L69.799 4.65474H63.233H58.957Z" fill="currentColor"/>
<path d="M58.957 1.00714H63.233V21.0063H58.957V1.00714Z" fill="currentColor"/>
<path opacity="0.5" d="M58.957 10.2027L69.799 4.65477L67.967 1.5571L58.957 5.95997V10.2027Z" fill="currentColor"/>
<path opacity="0.7" d="M63.233 7.99261V21.0028H58.957V10.2138L63.233 7.99261Z" fill="currentColor"/>

<!-- P (zweites) -->
<path d="M79.326 4.65474H72.793V1.00714H88.01L90.168 4.65474H83.602H79.326Z" fill="currentColor"/>
<path d="M79.326 1.00714H83.602V21.0063H79.326V1.00714Z" fill="currentColor"/>
<path opacity="0.5" d="M79.326 10.2027L90.168 4.65477L88.336 1.5571L79.326 5.95997V10.2027Z" fill="currentColor"/>
<path opacity="0.7" d="M83.602 7.99261V21.0028H79.326V10.2138L83.602 7.99261Z" fill="currentColor"/>

<!-- L - N-Struktur -->
<path d="M95.808 1.00714H100.052L107.843 21.0028H103.531L95.808 1.00714Z" fill="currentColor"/>
<path opacity="0.5" d="M105.835 6.18617L99.656 21.33L96.478 18.5943L103.84 1.00714L105.835 6.18617Z" fill="currentColor"/>
<path opacity="0.7" d="M101.656 21.33L111.649 16.1051L110.417 12.9141L103.838 15.9821L101.656 21.33Z" fill="currentColor"/>

<!-- E (zweites) -->
<path d="M116.683 3.31479C116.683 6.09921 118.433 7.75595 121.937 8.62956L125.65 9.47533C128.966 10.2236 130.986 12.0822 130.986 15.1103C131.012 16.4295 130.575 17.7173 129.749 18.7579C129.749 15.7368 128.158 14.1044 124.321 13.1229L120.676 12.3085C117.756 11.6541 115.503 10.1262 115.503 6.83709C115.488 5.56693 115.903 4.32781 116.683 3.31479" fill="currentColor"/>
<path opacity="0.7" d="M127.468 14.3689C129.051 15.3643 129.746 16.7565 129.746 18.7544C128.435 20.4041 126.132 21.33 123.425 21.33C118.869 21.33 115.68 19.1268 114.972 15.2982H119.347C119.911 17.0559 121.402 17.8703 123.393 17.8703C125.824 17.8703 127.439 16.5964 127.471 14.3619" fill="currentColor"/>
<path opacity="0.7" d="M118.958 7.44267C118.234 7.02045 117.641 6.41375 117.241 5.68697C116.84 4.96019 116.648 4.14045 116.683 3.31476C117.948 1.67891 120.148 0.679993 122.83 0.679993C127.471 0.679993 130.157 3.08852 130.819 6.47856H126.61C126.146 5.14203 124.984 4.10136 122.865 4.10136C120.601 4.10136 119.057 5.39611 118.968 7.44267" fill="currentColor"/>

<!-- R - I+N Hybrid -->
<path d="M136.414 13.6415V1.00714H140.492V21.0028H136.414V13.6415Z" fill="currentColor"/>
<path opacity="0.7" d="M136.414 13.6415V1.00714H140.492V21.0028H136.414V13.6415Z" fill="currentColor"/>
<path d="M136.803 1.00714L145.784 14.6682V21.0028L132.095 1.00714H136.803Z" fill="currentColor"/>
<path opacity="0.7" d="M136.172 6.96233V21.0028H132.095V1.00714L136.172 6.96233Z" fill="currentColor"/>

</svg>








